<svg width="20" height="21" viewBox="0 0 20 21" fill="none" xmlns="http://www.w3.org/2000/svg">
<g clip-path="url(#clip0_211_72)">
<path d="M10 22.1509C8.26942 22.1509 6.57769 21.6377 5.13876 20.6762C3.69983 19.7148 2.57832 18.3482 1.91606 16.7494C1.25379 15.1505 1.08051 13.3912 1.41813 11.6938C1.75575 9.99651 2.58911 8.43741 3.81282 7.2137C5.03653 5.98999 6.59563 5.15663 8.29296 4.81901C9.9903 4.48139 11.7496 4.65467 13.3485 5.31694C14.9473 5.9792 16.3139 7.10071 17.2754 8.53964C18.2368 9.97857 18.75 11.6703 18.75 13.4009C18.75 15.7215 17.8281 17.9471 16.1872 19.5881C14.5462 21.229 12.3206 22.1509 10 22.1509ZM10 5.90088C8.51664 5.90088 7.0666 6.34075 5.83323 7.16486C4.59986 7.98897 3.63856 9.16031 3.07091 10.5308C2.50325 11.9012 2.35473 13.4092 2.64411 14.8641C2.9335 16.3189 3.64781 17.6553 4.6967 18.7042C5.7456 19.7531 7.08197 20.4674 8.53683 20.7568C9.99168 21.0462 11.4997 20.8976 12.8701 20.33C14.2406 19.7623 15.4119 18.801 16.236 17.5677C17.0601 16.3343 17.5 14.8842 17.5 13.4009C17.5 11.4118 16.7098 9.5041 15.3033 8.09758C13.8968 6.69106 11.9891 5.90088 10 5.90088Z" fill="#FFFDF5"/>
<path d="M12.8688 17.1509L9.375 13.6571V7.77588H10.625V13.1384L13.75 16.2696L12.8688 17.1509Z" fill="#FFFDF5"/>
</g>
<defs>
<clipPath id="clip0_211_72">
<rect width="20" height="19.9147" fill="white" transform="translate(0 0.138672)"/>
</clipPath>
</defs>
</svg>
