<svg width="24" height="21" viewBox="0 0 24 21" fill="none" xmlns="http://www.w3.org/2000/svg">
<path d="M21.199 10.4604H20.1141V17.9868L15.361 13.1489L14.4505 14.0757L19.1195 18.8348H3.10384L7.6244 14.0757L6.69446 13.162L2.03182 18.0723V6.68734L10.059 14.8185C10.301 15.0634 10.6284 15.2008 10.9696 15.2008C11.3108 15.2008 11.6382 15.0634 11.8802 14.8185L16.1812 10.4604H14.3536L10.9696 13.8851L2.87781 5.6882H12.4033L13.1459 4.37354H2.03182C1.68927 4.37354 1.36075 4.51204 1.11853 4.75859C0.876312 5.00514 0.740234 5.33953 0.740234 5.6882V18.8348C0.740234 19.1835 0.876312 19.5179 1.11853 19.7644C1.36075 20.011 1.68927 20.1495 2.03182 20.1495H20.1141C20.4566 20.1495 20.7851 20.011 21.0274 19.7644C21.2696 19.5179 21.4057 19.1835 21.4057 18.8348V10.4473L21.199 10.4604Z" fill="#FFFDF5"/>
<path d="M17.8581 0.944113L13.9179 7.74148C13.8425 7.87434 13.8031 8.02448 13.8037 8.1771C13.8043 8.32973 13.8449 8.47956 13.9214 8.61182C13.9979 8.74408 14.1077 8.8542 14.2399 8.93132C14.3722 9.00843 14.5224 9.04988 14.6757 9.05157H22.563C22.7162 9.04988 22.8664 9.00843 22.9987 8.93132C23.131 8.8542 23.2408 8.74408 23.3173 8.61182C23.3938 8.47956 23.4343 8.32973 23.4349 8.1771C23.4355 8.02448 23.3962 7.87434 23.3207 7.74148L19.3805 0.944113C19.3028 0.81177 19.1916 0.701994 19.0581 0.625706C18.9246 0.549418 18.7733 0.509277 18.6193 0.509277C18.4654 0.509277 18.3141 0.549418 18.1805 0.625706C18.047 0.701994 17.9358 0.81177 17.8581 0.944113Z" fill="#FFFDF5"/>
</svg>
