<svg width="21" height="21" viewBox="0 0 21 21" fill="none" xmlns="http://www.w3.org/2000/svg">
<path d="M10.5553 5.51317C9.60975 5.51317 8.68543 5.79237 7.89923 6.31545C7.11303 6.83853 6.50027 7.582 6.13842 8.45186C5.77657 9.32171 5.6819 10.2789 5.86636 11.2023C6.05083 12.1257 6.50616 12.974 7.17477 13.6397C7.84337 14.3055 8.69523 14.7589 9.62261 14.9425C10.55 15.1262 11.5113 15.0319 12.3848 14.6716C13.2584 14.3113 14.0051 13.7012 14.5304 12.9183C15.0557 12.1355 15.3361 11.2151 15.3361 10.2736C15.3347 9.01149 14.8305 7.80148 13.9343 6.90904C13.038 6.0166 11.8228 5.5146 10.5553 5.51317ZM10.5553 13.7922C9.85642 13.7922 9.17322 13.5858 8.59212 13.1992C8.01102 12.8125 7.5581 12.263 7.29065 11.6201C7.0232 10.9772 6.95322 10.2697 7.08956 9.58715C7.22591 8.90461 7.56246 8.27767 8.05664 7.78559C8.55083 7.2935 9.18047 6.95839 9.86592 6.82263C10.5514 6.68686 11.2619 6.75654 11.9076 7.02286C12.5533 7.28917 13.1051 7.74015 13.4934 8.31878C13.8817 8.8974 14.0889 9.57768 14.0889 10.2736C14.0879 11.2064 13.7152 12.1008 13.0528 12.7604C12.3903 13.42 11.4922 13.7911 10.5553 13.7922ZM15.1282 0.131836H5.98236C4.49443 0.133534 3.06792 0.722846 2.01579 1.77049C0.963659 2.81813 0.371823 4.23856 0.370117 5.72015V14.827C0.371823 16.3086 0.963659 17.729 2.01579 18.7767C3.06792 19.8243 4.49443 20.4136 5.98236 20.4153H15.1282C16.6162 20.4136 18.0427 19.8243 19.0948 18.7767C20.1469 17.729 20.7388 16.3086 20.7405 14.827V5.72015C20.7388 4.23856 20.1469 2.81813 19.0948 1.77049C18.0427 0.722846 16.6162 0.133534 15.1282 0.131836ZM19.4933 14.827C19.492 15.9794 19.0317 17.0842 18.2134 17.899C17.3951 18.7139 16.2855 19.1722 15.1282 19.1735H5.98236C4.82507 19.1722 3.71554 18.7139 2.89721 17.899C2.07888 17.0842 1.61858 15.9794 1.61728 14.827V5.72015C1.61858 4.56779 2.07888 3.463 2.89721 2.64816C3.71554 1.83331 4.82507 1.37497 5.98236 1.37368H15.1282C16.2855 1.37497 17.3951 1.83331 18.2134 2.64816C19.0317 3.463 19.492 4.56779 19.4933 5.72015V14.827ZM16.999 4.89225C16.999 5.09693 16.938 5.29701 16.8238 5.46719C16.7096 5.63738 16.5473 5.77002 16.3574 5.84835C16.1675 5.92667 15.9585 5.94717 15.7569 5.90724C15.5553 5.86731 15.3701 5.76875 15.2248 5.62402C15.0794 5.47929 14.9805 5.29489 14.9404 5.09414C14.9003 4.8934 14.9208 4.68532 14.9995 4.49622C15.0782 4.30712 15.2114 4.1455 15.3823 4.03179C15.5532 3.91807 15.7541 3.85738 15.9597 3.85738C16.2352 3.85771 16.4994 3.96684 16.6942 4.16085C16.8891 4.35485 16.9987 4.61789 16.999 4.89225Z" fill="#FFFDF5"/>
</svg>
