<svg width="21" height="22" viewBox="0 0 21 22" fill="none" xmlns="http://www.w3.org/2000/svg">
<path d="M18.2586 21.4156H2.98087C2.27798 21.4156 1.67788 21.1581 1.18056 20.6431C0.683232 20.1281 0.43457 19.5067 0.43457 18.7788V2.95766C0.43457 2.22977 0.683232 1.60833 1.18056 1.09332C1.67788 0.578306 2.27798 0.320801 2.98087 0.320801H18.2586C18.9615 0.320801 19.5616 0.578306 20.059 1.09332C20.5563 1.60833 20.8049 2.22977 20.8049 2.95766V18.7788C20.8049 19.5067 20.5563 20.1281 20.059 20.6431C19.5616 21.1581 18.9615 21.4156 18.2586 21.4156ZM6.80031 8.23137V6.25373C6.80031 5.88292 6.6909 5.51898 6.47208 5.1619C6.25326 4.80483 6.01122 4.55076 5.74599 4.39969C5.48075 4.24862 5.27519 4.24175 5.1293 4.37909L3.67712 5.90352C3.27926 6.31553 3.05381 6.8683 3.00076 7.56185C2.94771 8.2554 3.05049 9.01075 3.3091 9.8279C3.56771 10.6451 3.98214 11.5103 4.55241 12.4236C5.12267 13.3368 5.80566 14.2055 6.60138 15.0295C7.3971 15.8535 8.23592 16.5608 9.11784 17.1514C9.99976 17.7419 10.8353 18.1745 11.6243 18.4492C12.4134 18.7239 13.1428 18.8337 13.8126 18.7788C14.4823 18.7239 15.0161 18.4904 15.414 18.0784L16.886 16.5539C17.0187 16.4166 17.012 16.2072 16.8661 15.9256C16.7203 15.6441 16.4749 15.39 16.1301 15.1634C15.7853 14.9368 15.4338 14.8235 15.0758 14.8235H13.1661L11.873 15.6475C11.2762 15.4827 10.5402 15.0364 9.6649 14.3085C8.78961 13.5806 8.00052 12.7635 7.29763 11.857C6.59475 10.9506 6.16374 10.1884 6.00459 9.57039L6.80031 8.23137ZM14.3994 11.5274L15.6925 11.754C15.5864 10.106 14.9697 8.69831 13.8424 7.53095C12.7151 6.36359 11.3624 5.72498 9.78425 5.61511L9.98318 6.95414C11.137 7.10521 12.125 7.60649 12.9472 8.45797C13.7695 9.30946 14.2535 10.3326 14.3994 11.5274ZM10.2219 8.33437L10.4606 9.8176C10.9778 10.0785 11.3691 10.4837 11.6343 11.033L13.0666 11.2802C12.8942 10.5523 12.5527 9.92404 12.0421 9.39529C11.5315 8.86655 10.9248 8.51291 10.2219 8.33437ZM9.34661 2.95766L9.56543 4.29668C10.8916 4.32415 12.115 4.68466 13.2357 5.37821C14.3563 6.07175 15.2515 6.99877 15.9212 8.15927C16.591 9.31976 16.9391 10.5867 16.9656 11.96L18.2586 12.1867C18.2586 10.9369 18.0232 9.74207 17.5524 8.60217C17.0816 7.46228 16.4484 6.48033 15.6527 5.65631C14.857 4.8323 13.9087 4.17652 12.808 3.68897C11.7072 3.20143 10.5534 2.95766 9.34661 2.95766Z" fill="#FFFDF5"/>
</svg>
