<svg width="20" height="21" viewBox="0 0 20 21" fill="none" xmlns="http://www.w3.org/2000/svg">
<g clip-path="url(#clip0_211_66)">
<path d="M15 11.5739H13.75C13.7495 11.0747 13.5518 10.596 13.2003 10.243C12.8488 9.88995 12.3721 9.6914 11.875 9.6909V8.43555C12.7035 8.43654 13.4978 8.76751 14.0836 9.35586C14.6694 9.9442 14.999 10.7419 15 11.5739Z" fill="#FFFDF5"/>
<path d="M17.5 11.5739H16.25C16.2487 10.409 15.7873 9.29222 14.9671 8.46852C14.1469 7.64482 13.0349 7.18149 11.875 7.18016V5.9248C13.3663 5.92647 14.7961 6.52217 15.8506 7.58122C16.9052 8.64027 17.4983 10.0762 17.5 11.5739Z" fill="#FFFDF5"/>
<path d="M16.2497 21.617H16.1434C3.86216 20.9077 2.11841 10.5008 1.87466 7.32476C1.83656 6.82685 1.99696 6.33414 2.32057 5.955C2.64418 5.57585 3.1045 5.34133 3.60028 5.30301C3.64986 5.29925 3.69966 5.29736 3.74966 5.29736H7.04341C7.29375 5.29712 7.53841 5.37238 7.74568 5.51339C7.95294 5.6544 8.11328 5.85466 8.20591 6.08824L9.15591 8.43575C9.24738 8.66394 9.27007 8.91409 9.22118 9.15512C9.17229 9.39616 9.05397 9.61746 8.88091 9.79153L7.54966 11.141C7.75676 12.3282 8.3224 13.4226 9.16987 14.276C10.0173 15.1293 11.1056 15.7003 12.2872 15.9114L13.6434 14.5619C13.8193 14.39 14.0418 14.2739 14.283 14.2282C14.5241 14.1824 14.7734 14.209 14.9997 14.3045L17.3559 15.2523C17.585 15.3483 17.7804 15.5106 17.9173 15.7185C18.0542 15.9264 18.1264 16.1705 18.1247 16.4198V19.7339C18.1247 20.2333 17.9271 20.7123 17.5755 21.0654C17.2239 21.4186 16.7469 21.617 16.2497 21.617ZM3.74966 6.55272C3.66758 6.55247 3.58626 6.56846 3.51034 6.59977C3.43441 6.63109 3.36538 6.67712 3.30716 6.73523C3.24895 6.79334 3.20271 6.86239 3.17107 6.93845C3.13944 7.01451 3.12303 7.09608 3.12278 7.17851C3.12278 7.19609 3.12341 7.21345 3.12466 7.23061C3.41216 10.9465 5.25591 19.7339 16.2122 20.3616C16.3776 20.3716 16.5402 20.3151 16.6642 20.2047C16.7882 20.0943 16.8634 19.939 16.8734 19.7728L16.8747 19.7339V16.4198L14.5184 15.472L12.7247 17.2609L12.4247 17.2232C6.98716 16.5391 6.24966 11.0783 6.24966 11.0218L6.21216 10.7205L7.98716 8.91906L7.04966 6.55272H3.74966Z" fill="#FFFDF5"/>
</g>
<defs>
<clipPath id="clip0_211_66">
<rect width="20" height="20" fill="white" transform="translate(0 0.309082)"/>
</clipPath>
</defs>
</svg>
