<svg width="28" height="26" viewBox="0 0 28 26" fill="none" xmlns="http://www.w3.org/2000/svg">
<path d="M27.1162 20.667C26.872 17.7328 26.0746 14.8713 24.7662 12.2337C23.5128 9.8501 21.7069 7.80132 19.4995 6.25866L21.4995 1.85033C21.564 1.71858 21.5926 1.57215 21.5823 1.42582C21.5721 1.2795 21.5234 1.13848 21.4412 1.01699C21.3654 0.910426 21.2655 0.823211 21.1497 0.762406C21.0338 0.701602 20.9053 0.668917 20.7745 0.666995H7.16621C7.02612 0.666648 6.88821 0.701623 6.76521 0.768689C6.64222 0.835754 6.53811 0.932744 6.46253 1.05069C6.38694 1.16864 6.34231 1.30374 6.33276 1.44351C6.3232 1.58327 6.34904 1.72319 6.40788 1.85033L8.44955 6.27533C6.25828 7.81944 4.4647 9.86149 3.21621 12.2337C1.42455 15.567 0.866214 19.642 0.716214 22.467C0.691653 22.8806 0.753017 23.2947 0.896441 23.6834C1.03986 24.0721 1.26224 24.4268 1.54955 24.7253C1.85151 25.0186 2.20906 25.2486 2.60118 25.4017C2.9933 25.5548 3.41207 25.628 3.83288 25.617H8.99955V24.0003H3.76621C3.57762 23.9997 3.39109 23.9611 3.21781 23.8866C3.04454 23.8121 2.8881 23.7034 2.75788 23.567C2.62747 23.4317 2.52675 23.2706 2.46218 23.0941C2.3976 22.9176 2.37059 22.7295 2.38288 22.542C2.49955 20.367 2.95788 16.2253 4.68288 13.0003C5.89891 10.6896 7.69707 8.7363 9.89955 7.33366H10.7329C10.1682 8.11488 9.6479 8.92727 9.17455 9.76699C8.69244 10.6605 8.28279 11.5913 7.94955 12.5503L9.09121 13.317C9.42851 12.322 9.84368 11.3551 10.3329 10.4253C10.9336 9.34422 11.6161 8.31064 12.3745 7.33366H13.2079C13.7669 8.66982 14.1615 10.069 14.3829 11.5003C14.5639 12.5629 14.6531 13.6391 14.6495 14.717L15.9662 13.792C15.9295 12.9539 15.8405 12.119 15.6995 11.292C15.476 9.94048 15.1186 8.61453 14.6329 7.33366H15.2829L16.0412 5.66699H10.0079L8.46621 2.33366H19.4745L17.3912 6.89199C17.7483 7.08328 18.0909 7.30053 18.4162 7.54199C20.458 8.95066 22.1325 10.8281 23.2995 13.017C24.4684 15.4172 25.194 18.0088 25.4412 20.667H27.1162Z" fill="#514A7E"/>
</svg>
